<svg width="62" height="62" viewBox="0 0 62 62" fill="none" xmlns="http://www.w3.org/2000/svg">
<rect x="0.5" y="0.5" width="61" height="61" rx="30.5" stroke="white"/>
<path d="M39.8111 29.5714L24.5722 20.2491C24.3153 20.0918 24.0211 20.0059 23.7198 20.0003C23.4186 19.9947 23.1214 20.0696 22.8588 20.2173C22.5988 20.3628 22.3821 20.5748 22.2312 20.8317C22.0802 21.0886 22.0004 21.3811 22 21.679V40.3215C22.002 40.7684 22.1813 41.1963 22.4987 41.5111C22.816 41.8258 23.2453 42.0017 23.6923 42C24.0042 41.9999 24.3101 41.9139 24.5765 41.7514L39.8111 32.4292C40.056 32.2799 40.2584 32.0702 40.3988 31.8201C40.5392 31.5701 40.613 31.2881 40.613 31.0013C40.613 30.7145 40.5392 30.4326 40.3988 30.1825C40.2584 29.9325 40.056 29.7227 39.8111 29.5735V29.5714ZM23.6923 40.3014V21.6928L38.9047 31.0003L23.6923 40.3014Z" fill="white"/>
</svg>
